<svg xmlns="http://www.w3.org/2000/svg" width="9600" height="2400" viewBox="0 0 9600 2400">
<g fill="#ECEAE3"><path d="M770.1405251951738 1943.0Q653.0145493257629 1943.0 571.2180624556422 1910.180801987225Q489.4215755855216 1877.36160397445 447.13023420865863 1806.3967352732434Q404.8388928317956 1735.4318665720368 404.8388928317956 1622.8843151171043V702.1362668559261Q404.8388928317956 662.9151880766501 425.5072746628815 637.5257274662881Q446.1756564939674 612.1362668559261 483.1405251951739 606.3573456352024H115.07026259758695V368.03513129879343H678.7892122072392L675.9751596877218 1538.0496806245565Q675.9751596877218 1638.0496806245565 711.2138041163946 1670.014549325763Q746.4524485450675 1701.9794180269696 841.7892122072392 1701.9794180269696Q904.291341376863 1701.9794180269696 970.0175656493968 1691.2407735982968Q1035.7437899219306 1680.502129169624 1090.63839602555 1660.874024130589V1895.5929737402414Q1024.5578424414477 1917.1859474804826 937.6456706884314 1930.0929737402412Q850.7334989354152 1943.0 770.1405251951738 1943.0Z M1795.8491838183108 1942.0Q1647.8843151171043 1942.0 1537.8089070262597 1875.4245919091554Q1427.7334989354151 1808.8491838183108 1366.8440383250531 1682.942157558552Q1305.9545777146914 1557.0351312987934 1305.9545777146914 1380.3367636621717Q1305.9545777146914 1202.9648687012066 1370.4370120652945 1076.278921220724Q1434.9194464158977 949.5929737402413 1547.7737757274663 881.7964868701206Q1660.6281050390348 814.0 1804.7437899219303 814.0Q1955.5227111426543 814.0 2065.3016323633783 882.6859474804826Q2175.0805535841023 951.3718949609653 2234.5629879347052 1077.168381831086Q2294.0454222853086 1202.9648687012066 2294.0454222853086 1375.0Q2294.0454222853086 1557.0351312987934 2228.6559616749464 1683.5351312987934Q2163.2665010645846 1810.0351312987934 2050.708658623137 1876.0175656493966Q1938.1508161816892 1942.0 1795.8491838183108 1942.0ZM1801.1859474804826 1711.0496806245565Q1893.0248403122782 1711.0496806245565 1954.333747338538 1634.112668559262Q2015.6426543647976 1557.1756564939674 2015.6426543647976 1376.1859474804826Q2015.6426543647976 1199.5227111426543 1954.665365507452 1122.236515259049Q1893.6880766501065 1044.9503193754435 1798.8140525195174 1044.9503193754435Q1705.9751596877218 1044.9503193754435 1645.4627395315827 1121.625975869411Q1584.9503193754435 1198.3016323633783 1584.9503193754435 1373.221078779276Q1584.9503193754435 1553.1053938963805 1647.7416607523066 1632.0775372604685Q1710.5330021291697 1711.0496806245565 1801.1859474804826 1711.0496806245565Z M2861.6178140525194 1939.0Q2711.6178140525194 1939.0 2624.5826827537257 1854.8140525195174Q2537.5475514549325 1770.6281050390348 2537.5475514549325 1627.442157558552Q2537.5475514549325 1504.0702625975869 2613.879169623847 1428.9245919091554Q2690.210787792761 1353.778921220724 2857.4772888573457 1319.8491838183108Q2910.1302342086587 1309.8140525195174 2965.7304826117816 1301.7035131298794Q3021.330731014904 1293.5929737402412 3077.2377572746627 1287.5Q3133.1447835344215 1281.4070262597588 3184.8286018452804 1277.0351312987934V1209.63839602555Q3184.8286018452804 1112.904897090135 3145.2986160397445 1072.555713271824Q3105.7686302342086 1032.2065294535132 3013.035131298793 1032.2065294535132Q2922.0805535841023 1032.2065294535132 2873.5505677785663 1073.1135557132718Q2825.0205819730304 1114.0205819730304 2828.7995031937544 1216.4875798438609H2571.8388928317954Q2560.8388928317954 1092.5227111426543 2611.542405961675 1002.4473030518097Q2662.2459190915542 912.3718949609653 2765.8967352732434 863.6859474804826Q2869.5475514549325 815.0 3017.592973740241 815.0Q3232.0454222853086 815.0 3342.806777856636 916.5Q3453.5681334279634 1018.0 3453.5681334279634 1216.2562100780697V1927.0H3183.6426543647976L3184.8286018452804 1676.8843151171043Q3169.386444286728 1758.1859474804826 3123.9267210787793 1816.8718949609652Q3078.4669978708303 1875.5578424414477 3011.2283534421576 1907.278921220724Q2943.9897090134846 1939.0 2861.6178140525194 1939.0ZM2962.5227111426543 1746.0248403122782Q3010.0 1746.0248403122782 3058.5124201561393 1725.7107877927608Q3107.0248403122782 1705.3967352732434 3142.2232079489 1672.3791696238468Q3177.4215755855216 1639.36160397445 3184.8286018452804 1600.36160397445V1415.3367636621717Q3164.305890702626 1418.708658623137 3132.8286018452804 1423.9121717530163Q3101.3513129879348 1429.1156848828957 3070.210787792761 1434.4297374024131Q3039.070262597587 1439.7437899219303 3016.7437899219303 1444.9648687012066Q2914.462739531583 1467.5929737402412 2867.334634492548 1505.4070262597586Q2820.206529453513 1543.221078779276 2820.206529453513 1610.8491838183108Q2820.206529453513 1674.5124201561391 2859.2592264017035 1710.2686302342086Q2898.3119233498937 1746.0248403122782 2962.5227111426543 1746.0248403122782Z M3661.1053938963805 1927.0V835.0H3874.2416607523064L3892.6486870120652 1151.3016323633783L3883.3924769339956 1132.4918381831085Q3896.206529453513 983.652945351313 3965.653832505323 898.3264726756565Q4035.1011355571327 813.0 4142.462739531583 813.0Q4198.568133427963 813.0 4238.417317246274 840.4421575585521Q4278.266501064585 867.8843151171043 4298.580553584103 930.7861958836054Q4318.8946061036195 993.6880766501065 4313.301632363378 1099.8637331440736L4310.3367636621715 1161.5330021291697V1927.0H4104.698367636622V1172.0908445706175Q4104.698367636622 1106.9854506742372 4087.2562100780697 1077.6311213626686Q4069.814052519517 1048.2767920511 4031.185947480483 1048.2767920511Q3987.4772888573457 1048.2767920511 3951.3543293115686 1079.5030163236338Q3915.2313697657914 1110.7292405961675 3895.206529453513 1185.0908445706175V1927.0ZM4518.014549325763 1927.0V1172.0908445706175Q4518.014549325763 1110.6486870120652 4500.647799858056 1079.4627395315827Q4483.281050390347 1048.2767920511 4440.989709013485 1048.2767920511Q4394.291341376863 1048.2767920511 4359.849183818311 1080.997870830376Q4325.407026259759 1113.718949609652 4310.3367636621715 1184.683818310859L4272.407026259759 1225.9545777146914L4303.301632363378 1149.1756564939674Q4314.8946061036195 994.070262597587 4385.970014194464 903.5351312987934Q4457.045422285309 813.0 4573.824343506032 813.0Q4660.673527324343 813.0 4706.3946061036195 880.4070262597587Q4752.115684882896 947.8140525195174 4752.115684882896 1091.235628105039V1927.0Z"/></g>
<g fill="#88C840"><path d="M5400.5 1947.291341376863Q5322.2210787792765 1947.291341376863 5267.349183818311 1890.7334989354154Q5212.477288857345 1834.1756564939674 5212.477288857345 1740.8865564687835Q5212.477288857345 1648.7934705464868 5267.349183818311 1592.5321149751596Q5322.2210787792765 1536.2707594038325 5400.5 1536.2707594038325Q5478.7789212207235 1536.2707594038325 5533.150816181689 1592.5321149751596Q5587.522711142654 1648.7934705464868 5587.522711142654 1740.8865564687835Q5587.522711142654 1834.1756564939674 5533.150816181689 1890.7334989354154Q5478.7789212207235 1947.291341376863 5400.5 1947.291341376863Z M6504.210787792761 1939.5929737402414Q6387.175656493968 1939.5929737402414 6296.268630234209 1872.1105393896382Q6205.36160397445 1804.6281050390348 6153.56511710433 1678.721078779276Q6101.768630234209 1552.8140525195174 6101.768630234209 1377.7437899219303Q6101.768630234209 1204.778921220724 6159.4897090134855 1078.5929737402414Q6217.210787792761 952.4070262597587 6315.745919091554 883.7035131298794Q6414.281050390347 815.0 6535.7232079489 815.0Q6608.502129169624 815.0 6662.502129169624 843.2035131298793Q6716.502129169624 871.4070262597586 6751.909155429383 922.7789212207239Q6787.316181689142 974.1508161816892 6802.7232079489 1044.0805535841023L6852.783179559971 1111.6589779985807L6794.758339247694 1190.1962384669978Q6784.351312987935 1142.055713271824 6758.3740241305895 1109.7995031937544Q6732.396735273243 1077.543293115685 6697.529985805536 1060.8397799858055Q6662.6632363378285 1044.1362668559261 6624.1053938963805 1044.1362668559261Q6516.266501064585 1044.1362668559261 6446.940028388928 1130.7767920511Q6377.613555713272 1217.4173172462738 6377.613555713272 1378.3718949609652Q6377.613555713272 1485.8843151171043 6405.241660752306 1560.8037615330022Q6432.869765791342 1635.7232079489 6484.53300212917 1674.8110361958836Q6536.196238466998 1713.8988644428673 6608.115684882896 1713.8988644428673Q6647.929737402413 1713.8988644428673 6686.407026259758 1694.916430092264Q6724.884315117104 1675.9339957416607 6753.675656493968 1640.288325053229Q6782.466997870831 1604.6426543647976 6791.909155429383 1555.652945351313L6802.502129169624 1611.8637331440739L6792.316181689142 1668.7686302342086Q6775.014549325763 1748.6281050390348 6735.368878637331 1809.7964868701206Q6695.7232079489 1870.9648687012066 6637.152945351313 1905.278921220724Q6578.582682753726 1939.5929737402414 6504.210787792761 1939.5929737402414ZM6794.909155429383 1927.0 6791.909155429383 1578.1859474804826V368.03513129879343H7065.1259758694105V1927.0Z M7835.849183818311 1942.0Q7680.396735273243 1942.0 7566.41430092264 1876.610539389638Q7452.431866572037 1811.221078779276 7390.100248403123 1685.8140525195174Q7327.768630234209 1560.4070262597588 7327.768630234209 1380.9648687012066Q7327.768630234209 1198.0 7390.954577714691 1071.4070262597588Q7454.140525195174 944.8140525195174 7566.273775727466 879.4070262597587Q7678.407026259759 814.0 7824.452448545067 814.0Q8039.904897090135 814.0 8159.08569907736 945.889460610362Q8278.266501064585 1077.778921220724 8278.266501064585 1321.0Q8278.266501064585 1350.8491838183108 8276.562987934705 1375.9824343506034Q8274.859474804825 1401.1156848828957 8273.266501064585 1431.8946061036195H7598.543293115685Q7603.5081618168915 1534.8843151171043 7632.555713271824 1599.0826827537262Q7661.603264726757 1663.281050390348 7712.464868701207 1692.8161816891413Q7763.326472675657 1722.3513129879348 7832.733498935415 1722.3513129879348Q7900.838892831795 1722.3513129879348 7943.688076650106 1690.6075230660044Q7986.537260468417 1658.8637331440739 8000.863733144074 1589.7232079489H8261.789212207239Q8252.568133427963 1698.4669978708303 8196.103264726757 1777.693222143364Q8139.63839602555 1856.9194464158977 8047.301632363378 1899.4597232079489Q7954.964868701207 1942.0 7835.849183818311 1942.0ZM7595.392476933996 1355.4173172462738Q7603.392476933996 1302.5227111426543 7634.46788502484 1283.8543293115686Q7665.543293115685 1265.1859474804826 7716.543293115685 1265.1859474804826H8007.386444286728Q8005.572391767211 1151.2313697657914 7962.17051100071 1093.3294889992903Q7918.768630234209 1035.4276082327892 7821.185947480482 1035.4276082327892Q7706.63839602555 1035.4276082327892 7650.4224627395315 1115.4575940383252Q7594.206529453513 1195.4875798438609 7595.392476933996 1355.4173172462738Z M8841.31618168914 1927.0 8460.838892831796 836.0H8764.311923349893L8928.301632363378 1431.5372604684173L8988.592973740242 1669.6075230660042H9011.814052519518L9072.919446415897 1431.316181689141L9237.281050390347 836.0H9539.161107168204L9160.090844570617 1927.0Z"/></g>
</svg>
