<?xml version="1.0" standalone="no"?>
<!DOCTYPE svg PUBLIC "-//W3C//DTD SVG 20010904//EN"
 "http://www.w3.org/TR/2001/REC-SVG-20010904/DTD/svg10.dtd">
<svg version="1.0" xmlns="http://www.w3.org/2000/svg"
 width="1536.000000pt" height="1024.000000pt" viewBox="0 0 1536.000000 1024.000000"
 preserveAspectRatio="xMidYMid meet">
<metadata>
Created by potrace 1.16, written by Peter Selinger 2001-2019
</metadata>
<g transform="translate(0.000000,1024.000000) scale(0.100000,-0.100000)"
fill="#000000" stroke="none">
<path d="M3623 5595 c0 -38 2 -53 4 -32 2 20 2 52 0 70 -2 17 -4 1 -4 -38z"/>
<path d="M3623 5325 c0 -38 2 -53 4 -32 2 20 2 52 0 70 -2 17 -4 1 -4 -38z"/>
<path d="M2455 5175 c-49 -17 -90 -61 -104 -112 -6 -21 -11 -79 -11 -128 0
-102 22 -162 73 -199 28 -21 36 -21 1108 -24 1206 -3 1115 -8 1166 70 25 37
28 52 31 145 6 155 -30 227 -126 252 -23 7 -419 10 -1067 10 -853 0 -1037 -3
-1070 -14z"/>
<path d="M2431 4623 c-18 -9 -45 -34 -60 -57 -24 -37 -26 -46 -26 -160 0 -103
3 -126 20 -155 26 -44 62 -70 111 -81 22 -5 491 -10 1066 -10 1133 0 1078 -3
1133 62 36 42 48 100 43 209 -3 84 -7 102 -30 136 -52 78 32 73 -1160 73 -968
0 -1066 -2 -1097 -17z"/>
<path d="M2434 4080 c-62 -31 -86 -82 -92 -194 -7 -143 21 -210 102 -247 39
-18 90 -19 1086 -19 996 0 1047 1 1086 19 82 37 108 103 102 251 -4 115 -25
157 -92 189 -42 21 -51 21 -1097 21 -1037 0 -1055 0 -1095 -20z"/>
</g>
</svg>
