<?xml version="1.0" standalone="no"?>
<!DOCTYPE svg PUBLIC "-//W3C//DTD SVG 20010904//EN"
 "http://www.w3.org/TR/2001/REC-SVG-20010904/DTD/svg10.dtd">
<svg version="1.0" xmlns="http://www.w3.org/2000/svg"
 width="1536.000000pt" height="1024.000000pt" viewBox="0 0 1536.000000 1024.000000"
 preserveAspectRatio="xMidYMid meet">
<metadata>
Created by potrace 1.16, written by Peter Selinger 2001-2019
</metadata>
<g transform="translate(0.000000,1024.000000) scale(0.100000,-0.100000)"
fill="#000000" stroke="none">
<path d="M5762 5503 l3 -68 138 -3 137 -3 -2 -462 -3 -462 -140 -5 -140 -5 -3
-56 c-2 -39 1 -59 11 -68 11 -8 106 -11 358 -9 l344 3 3 67 3 67 -143 3 -143
3 -3 533 -2 532 -211 0 -210 0 3 -67z"/>
<path d="M6970 5241 c-74 -24 -127 -70 -157 -136 -15 -34 -18 -76 -21 -267 -2
-147 0 -247 8 -283 15 -71 60 -131 125 -164 48 -25 56 -26 235 -26 206 0 230
6 298 76 60 61 63 85 60 380 l-3 266 -30 49 c-19 30 -49 60 -79 79 l-49 30
-181 2 c-100 1 -192 -2 -206 -6z m372 -169 l33 -32 3 -220 c4 -320 2 -323
-234 -318 -142 3 -144 3 -171 31 l-28 27 -3 230 c-4 322 -4 322 230 317 l138
-2 32 -33z"/>
<path d="M7947 5236 c-76 -28 -107 -79 -107 -180 l0 -66 64 0 63 0 6 41 c9 72
23 78 177 81 204 5 230 -14 230 -162 l0 -80 -205 0 c-227 0 -253 -5 -312 -62
-87 -85 -82 -300 9 -385 43 -41 97 -56 213 -61 129 -5 208 8 256 43 37 28 51
32 43 11 -3 -8 -1 -24 6 -35 8 -16 20 -21 55 -21 81 0 75 -30 75 369 0 325 -2
359 -19 396 -24 52 -66 91 -120 110 -58 20 -377 21 -434 1z m433 -568 c0 -87
-22 -131 -75 -154 -44 -18 -272 -20 -310 -2 -36 16 -55 57 -55 118 0 44 5 56
29 81 l29 29 191 0 191 0 0 -72z"/>
<path d="M8812 4808 l3 -443 44 -3 c25 -2 55 -1 68 3 l23 5 0 336 0 336 29 29
c39 39 100 41 136 4 l25 -24 1 -278 c2 -343 3 -386 13 -401 7 -12 92 -17 120
-6 14 5 16 45 16 341 l0 335 29 29 c36 35 95 40 132 10 l24 -19 3 -343 c2
-255 6 -345 15 -351 16 -10 99 -10 115 1 10 6 12 83 10 377 -3 364 -3 370 -26
409 -30 52 -76 83 -134 91 -73 10 -134 -3 -174 -38 l-35 -31 -27 26 c-56 53
-147 63 -225 24 l-46 -24 -3 21 c-3 19 -11 21 -71 24 l-67 3 2 -443z"/>
</g>
</svg>
