<?xml version="1.0" standalone="no"?>
<!DOCTYPE svg PUBLIC "-//W3C//DTD SVG 20010904//EN"
 "http://www.w3.org/TR/2001/REC-SVG-20010904/DTD/svg10.dtd">
<svg version="1.0" xmlns="http://www.w3.org/2000/svg"
 width="1536.000000pt" height="1024.000000pt" viewBox="0 0 1536.000000 1024.000000"
 preserveAspectRatio="xMidYMid meet">
<metadata>
Created by potrace 1.16, written by Peter Selinger 2001-2019
</metadata>
<g transform="translate(0.000000,1024.000000) scale(0.100000,-0.100000)"
fill="#000000" stroke="none">
<path d="M2356 6761 c-14 -16 -15 -29 -7 -103 13 -117 36 -198 82 -297 117
-251 326 -410 599 -456 193 -32 216 -37 262 -57 58 -25 123 -93 137 -144 6
-23 11 -135 11 -264 0 -162 3 -229 12 -238 7 -7 40 -12 78 -12 38 0 71 5 78
12 9 9 12 76 12 238 0 124 5 241 10 261 15 54 80 122 142 149 29 12 109 31
178 41 214 33 325 76 450 176 174 139 282 343 310 590 7 63 6 82 -6 101 -14
21 -19 22 -182 22 -284 0 -413 -23 -563 -101 -190 -99 -347 -299 -397 -506 -9
-41 -22 -73 -29 -73 -7 0 -17 19 -23 43 -54 216 -169 383 -341 496 -162 106
-316 141 -632 141 -147 0 -166 -2 -181 -19z"/>
</g>
</svg>
