<svg xmlns="http://www.w3.org/2000/svg" width="1260" height="455" viewBox="164 276 1260 455">
<rect x="164" y="276" width="1260" height="455" fill="#101014"/>
<g fill="#282420"><g transform="translate(0.000000,1024.000000) scale(0.100000,-0.100000)">
<path d="M3623 5595 c0 -38 2 -53 4 -32 2 20 2 52 0 70 -2 17 -4 1 -4 -38z"/>
<path d="M3623 5325 c0 -38 2 -53 4 -32 2 20 2 52 0 70 -2 17 -4 1 -4 -38z"/>
<path d="M2455 5175 c-49 -17 -90 -61 -104 -112 -6 -21 -11 -79 -11 -128 0
-102 22 -162 73 -199 28 -21 36 -21 1108 -24 1206 -3 1115 -8 1166 70 25 37
28 52 31 145 6 155 -30 227 -126 252 -23 7 -419 10 -1067 10 -853 0 -1037 -3
-1070 -14z"/>
<path d="M2431 4623 c-18 -9 -45 -34 -60 -57 -24 -37 -26 -46 -26 -160 0 -103
3 -126 20 -155 26 -44 62 -70 111 -81 22 -5 491 -10 1066 -10 1133 0 1078 -3
1133 62 36 42 48 100 43 209 -3 84 -7 102 -30 136 -52 78 32 73 -1160 73 -968
0 -1066 -2 -1097 -17z"/>
<path d="M2434 4080 c-62 -31 -86 -82 -92 -194 -7 -143 21 -210 102 -247 39
-18 90 -19 1086 -19 996 0 1047 1 1086 19 82 37 108 103 102 251 -4 115 -25
157 -92 189 -42 21 -51 21 -1097 21 -1037 0 -1055 0 -1095 -20z"/>
</g></g>
<g fill="#88C840"><g transform="translate(0.000000,1024.000000) scale(0.100000,-0.100000)">
<path d="M2356 6761 c-14 -16 -15 -29 -7 -103 13 -117 36 -198 82 -297 117
-251 326 -410 599 -456 193 -32 216 -37 262 -57 58 -25 123 -93 137 -144 6
-23 11 -135 11 -264 0 -162 3 -229 12 -238 7 -7 40 -12 78 -12 38 0 71 5 78
12 9 9 12 76 12 238 0 124 5 241 10 261 15 54 80 122 142 149 29 12 109 31
178 41 214 33 325 76 450 176 174 139 282 343 310 590 7 63 6 82 -6 101 -14
21 -19 22 -182 22 -284 0 -413 -23 -563 -101 -190 -99 -347 -299 -397 -506 -9
-41 -22 -73 -29 -73 -7 0 -17 19 -23 43 -54 216 -169 383 -341 496 -162 106
-316 141 -632 141 -147 0 -166 -2 -181 -19z"/>
</g></g>
<g fill="#F2F2F2"><g transform="translate(0.000000,1024.000000) scale(0.100000,-0.100000)">
<path d="M5762 5503 l3 -68 138 -3 137 -3 -2 -462 -3 -462 -140 -5 -140 -5 -3
-56 c-2 -39 1 -59 11 -68 11 -8 106 -11 358 -9 l344 3 3 67 3 67 -143 3 -143
3 -3 533 -2 532 -211 0 -210 0 3 -67z"/>
<path d="M6970 5241 c-74 -24 -127 -70 -157 -136 -15 -34 -18 -76 -21 -267 -2
-147 0 -247 8 -283 15 -71 60 -131 125 -164 48 -25 56 -26 235 -26 206 0 230
6 298 76 60 61 63 85 60 380 l-3 266 -30 49 c-19 30 -49 60 -79 79 l-49 30
-181 2 c-100 1 -192 -2 -206 -6z m372 -169 l33 -32 3 -220 c4 -320 2 -323
-234 -318 -142 3 -144 3 -171 31 l-28 27 -3 230 c-4 322 -4 322 230 317 l138
-2 32 -33z"/>
<path d="M7947 5236 c-76 -28 -107 -79 -107 -180 l0 -66 64 0 63 0 6 41 c9 72
23 78 177 81 204 5 230 -14 230 -162 l0 -80 -205 0 c-227 0 -253 -5 -312 -62
-87 -85 -82 -300 9 -385 43 -41 97 -56 213 -61 129 -5 208 8 256 43 37 28 51
32 43 11 -3 -8 -1 -24 6 -35 8 -16 20 -21 55 -21 81 0 75 -30 75 369 0 325 -2
359 -19 396 -24 52 -66 91 -120 110 -58 20 -377 21 -434 1z m433 -568 c0 -87
-22 -131 -75 -154 -44 -18 -272 -20 -310 -2 -36 16 -55 57 -55 118 0 44 5 56
29 81 l29 29 191 0 191 0 0 -72z"/>
<path d="M8812 4808 l3 -443 44 -3 c25 -2 55 -1 68 3 l23 5 0 336 0 336 29 29
c39 39 100 41 136 4 l25 -24 1 -278 c2 -343 3 -386 13 -401 7 -12 92 -17 120
-6 14 5 16 45 16 341 l0 335 29 29 c36 35 95 40 132 10 l24 -19 3 -343 c2
-255 6 -345 15 -351 16 -10 99 -10 115 1 10 6 12 83 10 377 -3 364 -3 370 -26
409 -30 52 -76 83 -134 91 -73 10 -134 -3 -174 -38 l-35 -31 -27 26 c-56 53
-147 63 -225 24 l-46 -24 -3 21 c-3 19 -11 21 -71 24 l-67 3 2 -443z"/>
</g></g>
<g fill="#88C840"><g transform="translate(0.000000,1024.000000) scale(0.100000,-0.100000)">
<path d="M11357 5564 c-4 -4 -7 -88 -7 -186 0 -99 -3 -178 -7 -176 -97 50 -99
50 -262 46 -155 -3 -158 -3 -207 -33 -30 -19 -60 -49 -79 -79 l-30 -49 0 -282
0 -282 30 -48 c21 -33 47 -57 85 -79 52 -29 61 -31 183 -35 156 -4 205 3 251
34 33 22 36 23 36 6 0 -31 25 -42 87 -39 l58 3 0 600 0 600 -65 3 c-36 2 -69
0 -73 -4z m-73 -469 c62 -29 66 -49 66 -290 0 -183 -3 -221 -16 -245 -31 -52
-59 -60 -212 -60 -128 0 -142 2 -167 22 -45 36 -52 67 -54 270 -2 211 5 255
50 292 30 25 35 26 166 26 100 0 143 -4 167 -15z"/>
<path d="M11940 5237 c-19 -6 -58 -34 -86 -62 -71 -71 -77 -99 -72 -400 3
-261 6 -273 67 -338 57 -62 91 -71 266 -75 182 -4 245 5 303 48 45 33 92 117
92 167 l0 33 -68 0 -69 0 -15 -39 c-25 -64 -54 -73 -225 -69 l-145 3 -29 33
c-28 31 -29 37 -29 127 l0 95 291 0 290 0 -3 163 c-3 162 -3 164 -33 213 -19
30 -49 60 -79 79 l-49 30 -186 2 c-117 1 -199 -2 -221 -10z m380 -152 c37 -33
52 -80 44 -141 l-6 -54 -214 0 -214 0 0 71 c0 81 9 102 53 130 29 18 47 19
173 17 125 -3 145 -5 164 -23z"/>
<path d="M12747 5237 c-3 -8 46 -164 108 -348 153 -453 174 -512 188 -521 21
-14 203 -9 215 5 6 7 57 148 113 313 55 164 119 352 141 417 22 65 37 124 34
132 -4 11 -23 15 -75 15 l-70 0 -115 -352 c-63 -194 -117 -363 -121 -376 -4
-13 -12 -21 -18 -19 -6 2 -51 125 -99 273 -48 148 -102 314 -120 369 l-33 100
-71 3 c-54 2 -73 -1 -77 -11z"/>
<path d="M10081 4564 c-28 -23 -31 -31 -31 -84 0 -48 5 -64 24 -87 23 -26 29
-28 101 -28 72 0 78 2 101 28 19 22 24 39 24 83 0 48 -4 60 -29 85 -27 26 -36
29 -94 29 -56 0 -70 -4 -96 -26z"/>
</g></g>
</svg>
